<svg width="18" height="20" viewBox="0 0 18 20" fill="none" xmlns="http://www.w3.org/2000/svg">
<path d="M14.54 6.31001C15.8986 6.31001 17 5.20863 17 3.85001C17 2.49139 15.8986 1.39001 14.54 1.39001C13.1814 1.39001 12.08 2.49139 12.08 3.85001C12.08 5.20863 13.1814 6.31001 14.54 6.31001Z" stroke="white" stroke-width="1.5" stroke-miterlimit="10" stroke-linecap="round" stroke-linejoin="round"/>
<path d="M3.46001 6.31001C4.81863 6.31001 5.92 5.20863 5.92 3.85001C5.92 2.49139 4.81863 1.39001 3.46001 1.39001C2.10139 1.39001 1 2.49139 1 3.85001C1 5.20863 2.10139 6.31001 3.46001 6.31001Z" stroke="white" stroke-width="1.5" stroke-miterlimit="10" stroke-linecap="round" stroke-linejoin="round"/>
<path d="M14.54 18.61C15.8986 18.61 17 17.5086 17 16.15C17 14.7914 15.8986 13.69 14.54 13.69C13.1814 13.69 12.08 14.7914 12.08 16.15C12.08 17.5086 13.1814 18.61 14.54 18.61Z" stroke="white" stroke-width="1.5" stroke-miterlimit="10" stroke-linecap="round" stroke-linejoin="round"/>
<path d="M3.46001 18.61C4.81863 18.61 5.92 17.5086 5.92 16.15C5.92 14.7914 4.81863 13.69 3.46001 13.69C2.10139 13.69 1 14.7914 1 16.15C1 17.5086 2.10139 18.61 3.46001 18.61Z" stroke="white" stroke-width="1.5" stroke-miterlimit="10" stroke-linecap="round" stroke-linejoin="round"/>
</svg>
